<?xml version="1.0" encoding="UTF-8"?>
<svg width="256px" height="256px" viewBox="0 0 256 256" version="1.1" xmlns="http://www.w3.org/2000/svg" xmlns:xlink="http://www.w3.org/1999/xlink">
    <!-- Generator: Sketch 47.1 (45422) - http://www.bohemiancoding.com/sketch -->
    <title>logo_sq</title>
    <desc>Created with Sketch.</desc>
    <defs></defs>
    <g id="Page-1" stroke="none" stroke-width="1" fill="none" fill-rule="evenodd">
        <g id="logo_sq" fill="#00B4FF">
            <g id="7522_LogoVectorEPS" transform="translate(6.000000, 78.000000)">
                <path d="M79.4513255,49.8902806 C79.6224798,74.6172517 98.4561943,92.1899236 121.614588,92.3286198 C146.616597,92.4780885 164.386998,73.1239113 164.454382,50.0235905 C164.520418,27.6073247 147.678562,7.56235971 121.990588,7.51657651 C97.7217132,7.47348643 79.6386519,25.8244728 79.4513255,49.8902806 Z M171.999997,49.8862409 C172.00943,75.4655876 152.336116,99.0883756 122.128051,100 C92.1315702,99.2311114 72.0350871,75.9113006 72.0000476,49.9697279 C71.9623128,22.4432484 94.3498381,0.0391016513 121.881427,5.12693984e-05 C149.539697,-0.0389991125 171.916441,22.2345308 171.999997,49.8862409 L171.999997,49.8862409 Z" id="Fill-4"></path>
                <path d="M174.308674,24.9896065 C172.484577,21.5293266 170.545629,18.2366727 168,14.9679654 C193.450886,10.959575 218.608566,6.99907782 244,3 C242.775828,9.78885366 240.749053,16.1054277 238.22099,22.1146873 C237.818337,22.4752163 237.483244,22.4459482 237.164364,22.4579215 C233.172969,22.601601 229.182925,22.7266553 225.192881,22.8849688 C216.837165,23.213569 208.481448,23.5541425 200.127082,23.9013678 C195.815457,24.0796367 191.505182,24.2765308 187.196259,24.4747552 C183.641296,24.6383901 180.086333,24.8219805 176.531371,24.9842851 C175.83416,25.0162138 175.135598,24.9896065 174.308674,24.9896065" id="Fill-5"></path>
                <path d="M76,14.8915953 C73.5687702,18.2103035 71.4670378,21.4055558 69.8371782,24.880907 C68.6127496,25.1822457 67.4412032,24.8211703 66.2642331,24.7840008 C62.0973791,24.6485975 57.9291691,24.5397438 53.766383,24.3499137 C48.3045906,24.1003469 42.8414423,23.8813121 37.378294,23.6755522 C32.5104105,23.491032 27.6479509,23.216243 22.7773555,23.0688924 C17.5298043,22.9082669 12.2863209,22.6494076 7.04148156,22.4343553 C6.71605203,22.4210805 6.38926653,22.4210805 6.10044782,22.2392153 C4.36482364,19.2483954 2.39326304,13.050376 0,3 C25.2980785,6.95855517 50.5025959,10.902508 76,14.8915953" id="Fill-6"></path>
                <path d="M234,30 C231.16737,35.9308291 227.696857,41.1639914 223.619545,46 C208.61309,44.2684097 193.744484,42.5527056 178.752895,40.8224392 C177.848778,37.2454079 177.156838,33.6339566 176,30 L234,30" id="Fill-7"></path>
                <path d="M20.223538,46 C16.288632,41.0848752 12.9351405,35.8144883 10,30.2500454 C11.2376776,29.9493366 65.3760493,29.9040973 67,30.2008143 C65.976176,33.6549735 65.2089762,37.1663472 64.4016789,40.8014638 C49.7259766,42.5285434 35.083689,44.2516313 20.223538,46" id="Fill-8"></path>
                <path d="M219,52.4577292 C214.945642,56.7740352 210.895371,60.6125362 206.372365,64 C197.213276,61.5520857 188.107319,59.1175552 179,56.6830248 C179.021798,53.1081865 179.761554,49.6765559 179.207077,46 C192.416437,48.1440999 205.512721,50.2694624 219,52.4577292" id="Fill-9"></path>
                <path d="M63.5495028,46 C63.492191,49.7618551 63.4948566,53.1787951 64,56.7031017 C55.0873518,59.1443483 46.2866614,61.5560692 37.3646834,64 C32.9863299,60.5642708 28.913195,56.7675216 25,52.4312556 C37.931137,50.2745303 50.6276956,48.1553832 63.5495028,46" id="Fill-10"></path>
                <path d="M175,69.6181095 C176.059743,66.7726361 176.696395,63.8615494 177.456616,61.0000074 C178.779616,60.9933122 193.601246,65.5246449 200,67.8934179 C199.012787,68.5468725 198.1478,69.1280186 197.276097,69.6944352 C194.540106,71.4726887 191.726213,73.1223938 188.815613,74.6020399 C188.246118,74.8912739 187.727663,75.1751518 187.00908,74.8658321 C183.1341,73.1960413 179.2336,71.5784733 175.343846,69.9381416 C175.253855,69.9006483 175.190727,69.7988808 175,69.6181095" id="Fill-17"></path>
                <path d="M43,67.8355317 C50.4339087,65.5486199 57.7790583,63.2895649 65.2225257,61 C66.3285995,63.9435368 66.7041184,67.0051333 68,69.853161 C66.387317,70.7445791 64.7323028,71.2619199 63.1482958,71.9278305 C60.8528512,72.8935334 58.5328272,73.8048492 56.2469412,74.7877968 C55.5273105,75.0982013 54.9401355,75.0650384 54.2464496,74.7082059 C50.4434673,72.7489432 46.7592856,70.6039685 43.1966354,68.2600165 C43.1256281,68.212262 43.1119729,68.08359 43,67.8355317" id="Fill-19"></path>
                <path d="M173.928252,74 C176.958927,75.3176321 179.877405,76.5856143 183,77.9439847 C179.612457,79.8676003 175.934283,80.6632718 172.423729,82 C171.536966,81.7275621 170.711033,81.3049013 170,80.6008912 C171.396381,78.4633991 172.708953,76.3233609 173.928252,74" id="Fill-26"></path>
                <path d="M61,77.9132124 C64.0787696,76.5427461 66.8819495,75.2966321 69.7986075,74 C71.2035748,76.242228 72.3761821,78.5893782 74,80.8251295 C73.2353736,81.2370466 72.5477502,81.607513 71.8209498,82 C68.2261249,80.8523316 64.6245454,79.7487047 61,77.9132124" id="Fill-27"></path>
                <path d="M115.619298,35.7996533 C114.079355,30.1579455 107.552417,26.4583105 101.580935,28.3263097 C95.3525709,30.2737696 91.8382729,36.5578966 93.7050335,42.6682876 C95.5933131,48.8446714 101.714082,51.8776449 106.871883,50.4931437 C106.589448,43.7457205 109.511978,38.8528286 115.619298,35.7996533 Z M135.354778,50.4810226 C140.676659,51.922089 147.008583,48.7463557 148.766404,42.4325992 C150.497327,36.207731 146.547272,29.697343 140.263766,28.1417993 C133.767762,26.532384 127.792245,31.1788132 126.856175,35.8791139 C129.560826,37.2137839 131.863343,39.0871702 133.435565,41.7592037 C135.003751,44.4245032 135.638557,47.3052892 135.354778,50.4810226 Z M132.757721,48.9928184 C132.726787,42.5618912 127.60261,37.4669806 121.164438,37.4669806 C114.695332,37.4669806 109.421867,42.697917 109.505253,49.1274975 C109.581914,55.1651618 114.224607,60.6641097 121.133504,60.6829648 C128.128477,60.7018199 132.912388,54.89311 132.757721,48.9928184 Z M150.24179,67.8694419 C148.910311,56.9415792 148.095285,53.9611306 145.542611,50.8985278 C142.298643,52.7099617 138.807209,53.7362165 134.958024,52.9685456 C134.147032,55.2890666 133.033431,57.2930917 131.36841,59.0708559 C134.686348,66.1064924 135.568621,73.5111496 134.450986,81.3925708 C125.708951,85.0033176 116.901014,84.6275629 108.039281,81.7144539 C107.146248,77.7643157 107.103211,73.934042 107.715153,70.0714452 C108.314991,66.2883092 109.443386,62.6627476 110.898599,59.0237182 C109.295444,57.3186807 108.160324,55.3308171 107.388336,53.0264576 C103.610432,53.4183738 100.049061,52.9375694 96.7889545,50.6722669 C93.2114448,56.0513504 92.4017979,62.028409 92.381624,68.1953653 C91.5854263,68.2074864 91.4025161,67.6148983 91.1066318,67.210861 C89.4631292,64.9671071 88.5875808,62.3745344 87.7658295,59.7563725 C86.648194,56.1941102 85.9663153,52.5402661 86.0012834,48.8204292 C86.0671849,42.00836 87.8814934,35.6636274 91.6822612,29.9626608 C97.5918767,21.0953885 105.868566,15.8173144 116.375147,14.3587397 C126.402934,12.9661577 135.424714,15.6449251 143.265647,22.0987479 C149.96877,27.615204 154.084251,34.7074057 155.488356,43.2554885 C156.900531,51.8426283 155.414385,59.9449233 150.71924,67.3643952 C150.637199,67.4936871 150.506741,67.5933497 150.24179,67.8694419 L150.24179,67.8694419 Z" id="Fill-35"></path>
            </g>
        </g>
    </g>
</svg>